<svg width="183" height="24" viewBox="0 0 183 24" fill="none" xmlns="http://www.w3.org/2000/svg">
<path d="M24.5527 7.4907L17.062 0L12.5527 4.50929L8.04342 0L0.552734 7.4907L5.06205 12L0.552734 16.5093L8.04342 24L12.5527 19.4907L17.062 24L24.5527 16.5093L20.0434 12L24.5527 7.4907V7.4907Z" fill="url(#paint0_linear_1_6529)"/>
<circle cx="9.07771" cy="11.6851" r="2.21053" fill="#1B1B1B"/>
<circle cx="16.0269" cy="11.6851" r="2.21053" fill="#1B1B1B"/>
<path d="M49.7877 14.9748C49.6342 16.0679 49.212 17.0361 48.5212 17.8794C47.8303 18.707 46.9476 19.3551 45.8729 19.8235C44.7983 20.292 43.6008 20.5263 42.2805 20.5263C40.776 20.5263 39.4481 20.2374 38.2967 19.6596C37.1606 19.0662 36.2702 18.2463 35.6254 17.2001C34.9806 16.1538 34.6582 14.9436 34.6582 13.5694C34.6582 12.1951 34.9806 10.9849 35.6254 9.93864C36.2702 8.89237 37.1606 8.08034 38.2967 7.50255C39.4481 6.90914 40.776 6.61244 42.2805 6.61244C43.6008 6.61244 44.7983 6.84668 45.8729 7.31516C46.9476 7.78364 47.8303 8.43951 48.5212 9.28277C49.212 10.1104 49.6342 11.0786 49.7877 12.1873H46.771C46.5561 11.1879 46.0418 10.4071 45.2282 9.84495C44.4145 9.28277 43.432 9.00168 42.2805 9.00168C41.3594 9.00168 40.5534 9.18908 39.8626 9.56386C39.1717 9.92303 38.6344 10.4462 38.2506 11.1333C37.8822 11.8047 37.6979 12.6168 37.6979 13.5694C37.6979 14.5063 37.8822 15.3183 38.2506 16.0054C38.6344 16.6925 39.1717 17.2235 39.8626 17.5983C40.5534 17.9574 41.3594 18.137 42.2805 18.137C43.4473 18.137 44.4375 17.8481 45.2512 17.2703C46.0648 16.6925 46.5715 15.9274 46.771 14.9748H49.7877Z" fill="white"/>
<path d="M51.4373 6.94038H54.431L55.2139 11.7657V20.1983H52.2203V11.1801L51.4373 6.94038ZM61.823 6.84668V9.51701C61.4853 9.42332 61.1168 9.35304 60.7177 9.3062C60.3185 9.25935 59.9424 9.23592 59.5893 9.23592C58.7449 9.23592 57.9927 9.42332 57.3325 9.7981C56.6724 10.1729 56.1504 10.7351 55.7666 11.4846C55.3982 12.2186 55.2139 13.1243 55.2139 14.2018L54.5231 13.3351C54.5845 12.3982 54.738 11.5237 54.9837 10.7116C55.2446 9.88399 55.5977 9.16565 56.043 8.55663C56.5035 7.94761 57.0639 7.47132 57.724 7.12777C58.3842 6.78422 59.1518 6.61244 60.0268 6.61244C60.3339 6.61244 60.6486 6.63587 60.971 6.68271C61.2934 6.71395 61.5774 6.7686 61.823 6.84668Z" fill="white"/>
<path d="M70.3066 20.5263C68.7867 20.5263 67.4357 20.2374 66.2536 19.6596C65.0715 19.0662 64.1427 18.2463 63.4672 17.2001C62.7917 16.1538 62.454 14.9358 62.454 13.5459C62.454 12.1717 62.7687 10.9693 63.3981 9.93864C64.0429 8.89237 64.9257 8.08034 66.0464 7.50255C67.1824 6.90914 68.4797 6.61244 69.9381 6.61244C71.3966 6.61244 72.6555 6.94819 73.7148 7.61967C74.7894 8.27554 75.6184 9.20469 76.2018 10.4071C76.7852 11.6096 77.0769 13.0228 77.0769 14.6469H64.8029V12.3279H75.5801L74.0832 13.1946C74.0372 12.3201 73.8299 11.5705 73.4615 10.9459C73.1084 10.3212 72.6248 9.84495 72.0107 9.51701C71.412 9.17346 70.6981 9.00168 69.8691 9.00168C68.994 9.00168 68.2264 9.18127 67.5662 9.54044C66.9214 9.8996 66.4148 10.4071 66.0464 11.063C65.6779 11.7032 65.4937 12.4684 65.4937 13.3585C65.4937 14.3423 65.7086 15.1934 66.1385 15.9117C66.5837 16.6301 67.2055 17.1845 68.0038 17.5748C68.8174 17.9496 69.7769 18.137 70.8823 18.137C71.8802 18.137 72.9011 17.9809 73.9451 17.6685C74.989 17.3406 75.9101 16.8877 76.7084 16.31V18.5118C75.9101 19.1364 74.9353 19.6283 73.7839 19.9875C72.6478 20.3467 71.4887 20.5263 70.3066 20.5263Z" fill="white"/>
<path d="M91.6989 20.1983L91.1923 15.2793L91.791 13.5694L91.1923 11.8828L91.6989 6.94038H94.7847L94.0938 13.5694L94.7847 20.1983H91.6989ZM92.62 13.5694C92.3283 14.9592 91.8448 16.1772 91.1693 17.2235C90.4938 18.2698 89.6571 19.0818 88.6592 19.6596C87.6766 20.2374 86.579 20.5263 85.3661 20.5263C84.0919 20.5263 82.9635 20.2374 81.981 19.6596C80.9985 19.0662 80.2309 18.2463 79.6782 17.2001C79.1255 16.1538 78.8492 14.9436 78.8492 13.5694C78.8492 12.1795 79.1255 10.9693 79.6782 9.93864C80.2309 8.89237 80.9985 8.08034 81.981 7.50255C82.9635 6.90914 84.0919 6.61244 85.3661 6.61244C86.579 6.61244 87.6766 6.90134 88.6592 7.47913C89.6571 8.05692 90.4938 8.86895 91.1693 9.91522C91.8601 10.9459 92.3437 12.1639 92.62 13.5694ZM81.8889 13.5694C81.8889 14.4595 82.0654 15.2481 82.4185 15.9352C82.787 16.6067 83.2859 17.1376 83.9154 17.528C84.5448 17.9028 85.2664 18.0902 86.08 18.0902C86.909 18.0902 87.6766 17.9028 88.3828 17.528C89.089 17.1376 89.7108 16.6067 90.2481 15.9352C90.8008 15.2481 91.2383 14.4595 91.5607 13.5694C91.2383 12.6792 90.8008 11.8984 90.2481 11.227C89.7108 10.5399 89.089 10.0089 88.3828 9.63413C87.6766 9.24373 86.909 9.04853 86.08 9.04853C85.2664 9.04853 84.5448 9.24373 83.9154 9.63413C83.2859 10.0089 82.787 10.5399 82.4185 11.227C82.0654 11.8984 81.8889 12.6792 81.8889 13.5694Z" fill="white"/>
<path d="M96.1919 9.28277V7.90076L98.9783 7.17462L100.222 3.47363H101.972V6.94038H108.028V9.28277H101.972V15.0216C101.972 16.1304 102.202 16.9112 102.663 17.364C103.139 17.8013 103.906 18.0199 104.966 18.0199C105.641 18.0199 106.24 17.9496 106.762 17.8091C107.284 17.6529 107.783 17.4343 108.259 17.1532V19.6596C107.86 19.8626 107.292 20.0578 106.555 20.2452C105.833 20.4326 105.088 20.5263 104.321 20.5263C103.047 20.5263 102.018 20.3155 101.235 19.8938C100.452 19.4566 99.8764 18.8632 99.508 18.1136C99.1549 17.3484 98.9783 16.4739 98.9783 15.4901V9.28277H96.1919Z" fill="white"/>
<path d="M117.197 20.5263C115.616 20.5263 114.227 20.2374 113.029 19.6596C111.847 19.0662 110.918 18.2463 110.243 17.2001C109.583 16.1538 109.253 14.9436 109.253 13.5694C109.253 12.1795 109.583 10.9693 110.243 9.93864C110.918 8.89237 111.847 8.08034 113.029 7.50255C114.227 6.90914 115.616 6.61244 117.197 6.61244C118.779 6.61244 120.16 6.90914 121.342 7.50255C122.54 8.08034 123.469 8.89237 124.129 9.93864C124.804 10.9693 125.142 12.1795 125.142 13.5694C125.142 14.9436 124.804 16.1538 124.129 17.2001C123.469 18.2463 122.54 19.0662 121.342 19.6596C120.16 20.2374 118.779 20.5263 117.197 20.5263ZM117.197 18.137C118.21 18.137 119.078 17.9496 119.799 17.5748C120.536 17.2001 121.104 16.6769 121.504 16.0054C121.903 15.3183 122.102 14.5063 122.102 13.5694C122.102 12.6324 121.903 11.8282 121.504 11.1567C121.104 10.4696 120.536 9.93864 119.799 9.56386C119.078 9.18908 118.21 9.00168 117.197 9.00168C116.199 9.00168 115.332 9.18908 114.595 9.56386C113.858 9.93864 113.29 10.4696 112.891 11.1567C112.492 11.8282 112.292 12.6324 112.292 13.5694C112.292 14.5063 112.492 15.3183 112.891 16.0054C113.29 16.6769 113.858 17.2001 114.595 17.5748C115.332 17.9496 116.199 18.137 117.197 18.137Z" fill="white"/>
<path d="M126.954 6.94038H129.947L130.73 11.7657V20.1983H127.737V11.1801L126.954 6.94038ZM137.339 6.84668V9.51701C137.002 9.42332 136.633 9.35304 136.234 9.3062C135.835 9.25935 135.459 9.23592 135.106 9.23592C134.261 9.23592 133.509 9.42332 132.849 9.7981C132.189 10.1729 131.667 10.7351 131.283 11.4846C130.915 12.2186 130.73 13.1243 130.73 14.2018L130.039 13.3351C130.101 12.3982 130.254 11.5237 130.5 10.7116C130.761 9.88399 131.114 9.16565 131.559 8.55663C132.02 7.94761 132.58 7.47132 133.24 7.12777C133.901 6.78422 134.668 6.61244 135.543 6.61244C135.85 6.61244 136.165 6.63587 136.487 6.68271C136.81 6.71395 137.094 6.7686 137.339 6.84668Z" fill="white"/>
<path d="M137.497 20.1983L143.784 12.6324L143.761 14.1315L137.866 6.94038H141.297L145.764 12.3279H144.498L148.988 6.94038H152.304L146.294 14.1784L146.179 12.4216L152.673 20.1983H149.242L144.36 14.3892H145.672L140.836 20.1983H137.497Z" fill="white"/>
<path d="M152.385 20.1983L158.671 12.6324L158.648 14.1315L152.753 6.94038H156.184L160.652 12.3279H159.385L163.876 6.94038H167.192L161.182 14.1784L161.066 12.4216L167.56 20.1983H164.129L159.247 14.3892H160.56L155.724 20.1983H152.385Z" fill="white"/>
<path d="M167.272 20.1983L173.559 12.6324L173.536 14.1315L167.641 6.94038H171.072L175.539 12.3279H174.273L178.763 6.94038H182.079L176.069 14.1784L175.954 12.4216L182.448 20.1983H179.016L174.135 14.3892H175.447L170.611 20.1983H167.272Z" fill="white"/>
<defs>
<linearGradient id="paint0_linear_1_6529" x1="4.18236" y1="17.6296" x2="23.3675" y2="7.77778" gradientUnits="userSpaceOnUse">
<stop stop-color="#00FFD1"/>
<stop offset="1" stop-color="#8245F0"/>
</linearGradient>
</defs>
</svg>
