<?xml version="1.0" encoding="utf-8"?><svg viewBox="0 0 48 48" xmlns="http://www.w3.org/2000/svg" xmlns:xlink="http://www.w3.org/1999/xlink"><style>:root>svg{display:none}:root>svg:target{display:block}</style><svg viewBox="0 0 16 16" id="angle-right" xmlns="http://www.w3.org/2000/svg"><path d="M6 3l5 5-5 5" stroke="currentColor" stroke-linecap="round" stroke-linejoin="round"/></svg><svg viewBox="0 0 15 16" id="arrow-left" xmlns="http://www.w3.org/2000/svg"><path d="M12.656 8H2.344M6.563 3.781L2.343 8l4.22 4.219" stroke="currentColor" stroke-linecap="round" stroke-linejoin="round"/></svg><svg viewBox="0 0 24 24" id="arrows-clock" xmlns="http://www.w3.org/2000/svg"><path d="M16.52 9.348h4.5v-4.5" stroke="currentColor" stroke-width="2" stroke-linecap="round" stroke-linejoin="round"/><path d="M6.168 6.168a8.24 8.24 0 0111.663 0l3.187 3.178M7.48 14.652h-4.5v4.5" stroke="currentColor" stroke-width="2" stroke-linecap="round" stroke-linejoin="round"/><path d="M17.83 17.83a8.241 8.241 0 01-11.662 0L2.98 14.652" stroke="currentColor" stroke-width="2" stroke-linecap="round" stroke-linejoin="round"/></svg><svg viewBox="0 0 32 32" id="card" xmlns="http://www.w3.org/2000/svg"><path d="M19 14h5M19 18h5M11.512 18a3 3 0 100-6 3 3 0 000 6zM7.637 21a4 4 0 017.75 0" stroke="currentColor" stroke-linecap="round" stroke-linejoin="round"/><path d="M27 6H5a1 1 0 00-1 1v18a1 1 0 001 1h22a1 1 0 001-1V7a1 1 0 00-1-1z" stroke="currentColor" stroke-linecap="round" stroke-linejoin="round"/></svg><svg viewBox="0 0 32 32" id="chats-circle" xmlns="http://www.w3.org/2000/svg"><path d="M4.262 17.587a9.013 9.013 0 113.15 3.15l-3.112.888a.75.75 0 01-.925-.925l.887-3.113z" stroke="currentColor" stroke-linecap="round" stroke-linejoin="round"/><path d="M11.512 21.987a8.987 8.987 0 0013.075 4.75v0l3.112.887a.75.75 0 00.925-.925l-.887-3.112a8.987 8.987 0 00-7.25-13.575" stroke="currentColor" stroke-linecap="round" stroke-linejoin="round"/></svg><svg viewBox="0 0 17 17" id="check" xmlns="http://www.w3.org/2000/svg"><path fill-rule="evenodd" clip-rule="evenodd" d="M13.638 4.695c.26.26.26.683 0 .943l-6.195 6.195c-.52.521-1.365.521-1.886 0L2.695 8.971a.667.667 0 11.943-.942L6.5 10.89l6.195-6.195c.26-.26.683-.26.943 0z"/></svg><svg viewBox="0 0 15 16" id="close" xmlns="http://www.w3.org/2000/svg"><path d="M11.719 3.781L3.28 12.22M11.719 12.219L3.28 3.78" stroke="currentColor" stroke-linecap="round" stroke-linejoin="round"/></svg><svg viewBox="0 0 15 15" id="copy" xmlns="http://www.w3.org/2000/svg"><path d="M12.656 10.781V2.344H4.22" stroke="currentColor" stroke-linecap="round" stroke-linejoin="round"/><path d="M10.781 4.219H2.344v8.437h8.437V4.22z" stroke="currentColor" stroke-linecap="round" stroke-linejoin="round"/></svg><svg viewBox="0 0 10 11" id="eye" xmlns="http://www.w3.org/2000/svg"><path d="M5 2.688C1.875 2.688.625 5.5.625 5.5S1.875 8.313 5 8.313 9.375 5.5 9.375 5.5 8.125 2.687 5 2.687z" stroke="currentColor" stroke-linecap="round" stroke-linejoin="round"/><path d="M5 7.063a1.563 1.563 0 100-3.126 1.563 1.563 0 000 3.126z" stroke="currentColor" stroke-linecap="round" stroke-linejoin="round"/></svg><svg viewBox="0 0 24 25" id="google" xmlns="http://www.w3.org/2000/svg"><path d="M12 1a12 12 0 1012 12A12.023 12.023 0 0012 1zm0 21.23a9.23 9.23 0 116.53-15.76.923.923 0 010 1.303.911.911 0 01-1.303 0 7.396 7.396 0 102.1 6.15H12a.923.923 0 010-1.846h8.308a.923.923 0 01.923.923A9.243 9.243 0 0112 22.23z"/></svg><svg viewBox="0 0 24 24" id="group" xmlns="http://www.w3.org/2000/svg"><path fill-rule="evenodd" clip-rule="evenodd" d="M7 8a5 5 0 1110 0A5 5 0 017 8zm5-3a3 3 0 100 6 3 3 0 000-6z"/><path d="M6.286 5.958a1 1 0 00-.572-1.916C4.07 4.533 3 6.192 3 8c0 1.808 1.07 3.467 2.714 3.958a1 1 0 10.572-1.916C5.63 9.846 5 9.079 5 8c0-1.08.63-1.846 1.286-2.042zM18.286 4.042a1 1 0 10-.572 1.916C18.37 6.154 19 6.921 19 8c0 1.08-.63 1.846-1.286 2.042a1 1 0 10.572 1.916C19.93 11.467 21 9.808 21 8c0-1.808-1.07-3.467-2.714-3.958z"/><path fill-rule="evenodd" clip-rule="evenodd" d="M12 14c-1.994 0-3.905.254-5.356.899C5.165 15.555 4 16.714 4 18.5c0 .467.085.998.403 1.504.317.507.805.89 1.435 1.175C7.047 21.726 8.984 22 12 22s4.953-.274 6.162-.821c.63-.285 1.118-.668 1.435-1.175.318-.506.403-1.037.403-1.504 0-1.786-1.165-2.945-2.644-3.601C15.905 14.254 13.994 14 12 14zm-6 4.5c0-.714.402-1.305 1.456-1.774C8.54 16.246 10.128 16 12 16c1.872 0 3.461.246 4.544.726C17.598 17.195 18 17.786 18 18.5c0 .224-.04.35-.097.442-.058.092-.195.247-.565.415-.791.358-2.354.643-5.338.643s-4.547-.285-5.338-.643c-.37-.168-.507-.323-.565-.415C6.04 18.85 6 18.724 6 18.5z"/><path d="M19.104 13.556a1 1 0 011.34-.452C21.939 13.846 23 15.126 23 17a1 1 0 11-2 0c0-.954-.475-1.623-1.445-2.104a1 1 0 01-.45-1.34zM4.445 14.896a1 1 0 00-.89-1.792C2.062 13.846 1 15.126 1 17a1 1 0 102 0c0-.954.475-1.623 1.445-2.104z"/></svg><svg viewBox="0 0 24 24" id="help" xmlns="http://www.w3.org/2000/svg"><path d="M13 17a1 1 0 11-2 0 1 1 0 012 0zM10.25 9.625C10.25 8.771 10.99 8 12 8s1.75.77 1.75 1.625c0 .587-.339 1.123-.885 1.413-.262.139-.645.345-.972.666A2.979 2.979 0 0011 13.831V14a1 1 0 102 0v-.17c0-.262.106-.514.293-.698.099-.096.243-.186.508-.327 1.144-.606 1.949-1.79 1.949-3.18C15.75 7.58 14.027 6 12 6S8.25 7.58 8.25 9.625a1 1 0 102 0z"/><path fill-rule="evenodd" clip-rule="evenodd" d="M2 12C2 6.477 6.477 2 12 2s10 4.477 10 10-4.477 10-10 10S2 17.523 2 12zm10-8a8 8 0 100 16 8 8 0 000-16z"/><defs><linearGradient id="alpaint0_linear_1_2030" x1="5.025" y1="16.691" x2="21.012" y2="8.481" gradientUnits="userSpaceOnUse"><stop stop-color="#00FFD1"/><stop offset="1" stop-color="#8245F0"/></linearGradient><linearGradient id="alpaint1_linear_1_2030" x1="5.025" y1="16.691" x2="21.012" y2="8.481" gradientUnits="userSpaceOnUse"><stop stop-color="#00FFD1"/><stop offset="1" stop-color="#8245F0"/></linearGradient><linearGradient id="alpaint2_linear_1_2030" x1="5.025" y1="16.691" x2="21.012" y2="8.481" gradientUnits="userSpaceOnUse"><stop stop-color="#00FFD1"/><stop offset="1" stop-color="#8245F0"/></linearGradient></defs></svg><svg viewBox="0 0 24 24" id="info" xmlns="http://www.w3.org/2000/svg"><path d="M11.5 16.5h1V11h-1v5.5zm.5-6.923c.175 0 .32-.059.438-.177a.595.595 0 00.177-.438.596.596 0 00-.177-.439.593.593 0 00-.438-.177.602.602 0 00-.615.616c0 .175.058.32.177.438a.593.593 0 00.438.177zM12.003 21a8.779 8.779 0 01-3.51-.708 9.103 9.103 0 01-2.859-1.924 9.088 9.088 0 01-1.925-2.856A8.752 8.752 0 013 12.003a8.77 8.77 0 01.708-3.51 9.095 9.095 0 011.924-2.859 9.081 9.081 0 012.856-1.925A8.77 8.77 0 0111.997 3c1.246 0 2.416.235 3.51.708a9.133 9.133 0 012.859 1.924 9.043 9.043 0 011.925 2.856A8.797 8.797 0 0121 11.997a8.726 8.726 0 01-.708 3.51 9.14 9.14 0 01-1.924 2.859 9.05 9.05 0 01-2.856 1.925 8.78 8.78 0 01-3.509.709zM12 20c2.233 0 4.125-.775 5.675-2.325C19.225 16.125 20 14.233 20 12c0-2.233-.775-4.125-2.325-5.675C16.125 4.775 14.233 4 12 4c-2.233 0-4.125.775-5.675 2.325C4.775 7.875 4 9.767 4 12c0 2.233.775 4.125 2.325 5.675C7.875 19.225 9.767 20 12 20z"/></svg><svg viewBox="0 0 24 24" id="menu-burger" xmlns="http://www.w3.org/2000/svg"><path fill-rule="evenodd" clip-rule="evenodd" d="M3 6a1 1 0 011-1h16a1 1 0 110 2H4a1 1 0 01-1-1zm0 6a1 1 0 011-1h16a1 1 0 110 2H4a1 1 0 01-1-1zm0 6a1 1 0 011-1h16a1 1 0 110 2H4a1 1 0 01-1-1z"/></svg><svg viewBox="0 0 12 13" id="picture" xmlns="http://www.w3.org/2000/svg"><path d="M4.25 5.5a.75.75 0 100-1.5.75.75 0 000 1.5z"/><path fill-rule="evenodd" clip-rule="evenodd" d="M5.503 1.5h.994c.693 0 1.244 0 1.689.037.455.038.843.117 1.197.3a3 3 0 011.28 1.28c.183.354.262.742.3 1.197C11 4.76 11 5.31 11 6.003v.994c0 .346 0 .656-.005.935a.502.502 0 01-.003.156c-.005.218-.014.417-.029.598-.038.455-.117.843-.3 1.197a3 3 0 01-1.28 1.28c-.354.183-.742.262-1.197.3-.445.037-.996.037-1.689.037h-.994c-.693 0-1.244 0-1.689-.037-.455-.038-.843-.117-1.197-.3a2.998 2.998 0 01-1.28-1.28c-.183-.354-.262-.742-.3-1.197C1 8.24 1 7.69 1 6.997v-.994c0-.693 0-1.244.037-1.689.038-.455.117-.843.3-1.197a3 3 0 011.28-1.28c.354-.183.742-.262 1.197-.3C4.26 1.5 4.81 1.5 5.503 1.5zM10 6.025v.73l-.694-.723a1 1 0 00-1.447.004l-2.333 2.46-.768-.928a1 1 0 00-1.568.033L2.095 9.046a3.437 3.437 0 01-.062-.443C2 8.205 2 7.695 2 6.975v-.95c0-.72 0-1.23.033-1.628.033-.392.095-.631.192-.819a2 2 0 01.853-.853c.188-.097.427-.159.819-.192.398-.033.908-.033 1.628-.033h.95c.72 0 1.23 0 1.628.033.392.033.631.095.819.192a2 2 0 01.853.853c.097.188.159.427.192.819.033.398.033.908.033 1.628zm-6.922 4.25a2 2 0 01-.43-.302l1.34-1.768.767.929a1 1 0 001.496.05l2.334-2.46L9.989 8.19a8.302 8.302 0 01-.022.413c-.033.392-.095.631-.192.819a2 2 0 01-.853.853c-.188.097-.427.159-.819.191-.398.034-.908.034-1.628.034h-.95c-.72 0-1.23 0-1.628-.034-.392-.032-.631-.094-.819-.191z"/></svg><svg viewBox="0 0 12 13" id="play" xmlns="http://www.w3.org/2000/svg"><path d="M6 11a4.5 4.5 0 100-9 4.5 4.5 0 000 9z" stroke="currentColor" stroke-linecap="round" stroke-linejoin="round"/><path d="M7.5 6.5L5.25 5v3L7.5 6.5z" stroke="currentColor" stroke-linecap="round" stroke-linejoin="round"/></svg><svg viewBox="0 0 24 24" id="play-default" xmlns="http://www.w3.org/2000/svg"><path d="M21.384 11.363l-13.49-8.25a.75.75 0 00-1.144.637v16.5a.75.75 0 001.144.637l13.49-8.25a.74.74 0 000-1.274v0z" stroke="currentColor" stroke-width="2" stroke-linecap="round" stroke-linejoin="round"/></svg><svg viewBox="0 0 16 16" id="plus" xmlns="http://www.w3.org/2000/svg"><path d="M2.5 8h11M8 2.5v11" stroke="currentColor" stroke-linecap="round" stroke-linejoin="round"/></svg><svg viewBox="0 0 20 20" id="reddit" xmlns="http://www.w3.org/2000/svg"><path d="M19.374 8.123a2.5 2.5 0 00-4.133-1.89c-1.312-.695-2.875-1.117-4.507-1.211l.406-2.438 1.703.266a1.89 1.89 0 10.195-1.234l-2.32-.36a.625.625 0 00-.71.516l-.54 3.242c-1.703.07-3.344.492-4.71 1.219a2.5 2.5 0 00-3.33 3.726c-.117.42-.178.854-.179 1.29 0 1.71.938 3.312 2.649 4.492 1.71 1.18 3.804 1.758 6.101 1.758s4.461-.625 6.102-1.758c1.64-1.133 2.648-2.782 2.648-4.492 0-.434-.06-.865-.18-1.282a2.531 2.531 0 00.805-1.844zm-13.75 2.188a1.25 1.25 0 112.5 0 1.25 1.25 0 01-2.5 0zm7.242 3.992a6.258 6.258 0 01-5.734 0 .625.625 0 01.57-1.11 5.016 5.016 0 004.594 0 .626.626 0 01.57 1.11zm.258-2.742a1.25 1.25 0 110-2.499 1.25 1.25 0 010 2.499z"/></svg><svg viewBox="0 0 25 24" id="search" xmlns="http://www.w3.org/2000/svg"><path fill-rule="evenodd" clip-rule="evenodd" d="M11.447 5a6 6 0 100 12 6 6 0 000-12zm-8 6a8 8 0 1114.32 4.906l3.387 3.387a1 1 0 01-1.414 1.414l-3.387-3.387A8 8 0 013.447 11z"/></svg><svg viewBox="0 0 16 16" id="settings" xmlns="http://www.w3.org/2000/svg"><path d="M8 11a3 3 0 100-6 3 3 0 000 6z" stroke="currentColor" stroke-linecap="round" stroke-linejoin="round"/><path d="M12.337 5.044c.15.216.282.443.393.681l1.62.9c.201.906.204 1.844.005 2.75l-1.625.9a4.591 4.591 0 01-.393.682l.031 1.856a6.5 6.5 0 01-2.381 1.381l-1.594-.956a5.534 5.534 0 01-.787 0l-1.588.95c-.886-.28-1.7-.75-2.387-1.375l.03-1.85a5.006 5.006 0 01-.393-.688l-1.619-.9a6.375 6.375 0 01-.006-2.75l1.625-.9a4.6 4.6 0 01.394-.68L3.63 3.187a6.5 6.5 0 012.38-1.381l1.595.956a5.52 5.52 0 01.787 0l1.588-.95c.886.28 1.7.749 2.387 1.375l-.031 1.856z" stroke="currentColor" stroke-linecap="round" stroke-linejoin="round"/></svg><svg viewBox="0 0 20 20" id="telegram" xmlns="http://www.w3.org/2000/svg"><path d="M18.068 2.478a1.257 1.257 0 00-1.273-.211L2.373 7.93a1.234 1.234 0 00-.789 1.273 1.25 1.25 0 001 1.118l3.664.726v4.578a1.25 1.25 0 002.133.883l2.031-2.023 3.07 2.703a1.25 1.25 0 002.047-.656l2.938-12.829a1.25 1.25 0 00-.399-1.226zM14.31 16.25l-6.437-5.664 9.273-6.695-2.836 12.36z"/></svg><svg viewBox="0 0 25 24" id="user" xmlns="http://www.w3.org/2000/svg"><path fill-rule="evenodd" clip-rule="evenodd" d="M12.447 5a3 3 0 100 6 3 3 0 000-6zm-5 3a5 5 0 1110 0 5 5 0 01-10 0zm.456 8.726c-1.054.469-1.456 1.06-1.456 1.774 0 .224.04.35.098.442.057.092.194.247.564.415.791.358 2.354.643 5.338.643s4.547-.285 5.338-.643c.37-.168.507-.323.565-.415.057-.092.097-.218.097-.442 0-.714-.402-1.305-1.456-1.774-1.082-.48-2.672-.726-4.544-.726-1.872 0-3.461.246-4.544.726zM7.092 14.9c1.45-.645 3.361-.899 5.355-.899 1.994 0 3.905.254 5.356.899 1.48.656 2.644 1.815 2.644 3.601 0 .467-.085.998-.402 1.504-.318.507-.806.89-1.436 1.175-1.209.547-3.146.821-6.162.821s-4.953-.274-6.162-.821c-.63-.285-1.118-.668-1.435-1.175-.317-.506-.403-1.037-.403-1.504 0-1.786 1.165-2.945 2.645-3.601z"/></svg><svg viewBox="0 0 16 17" id="user-add" xmlns="http://www.w3.org/2000/svg"><path fill-rule="evenodd" clip-rule="evenodd" d="M6.668 5.833a3.333 3.333 0 116.667 0 3.333 3.333 0 01-6.667 0zm3.333-2a2 2 0 100 4 2 2 0 000-4z"/><path d="M3.335 5.833c.368 0 .666.299.666.667v1.333h1.334a.667.667 0 010 1.334H4V10.5a.667.667 0 11-1.333 0V9.167H1.335a.667.667 0 110-1.334h1.333V6.5c0-.368.298-.667.667-.667z"/><path fill-rule="evenodd" clip-rule="evenodd" d="M10.001 9.833c-1.329 0-2.603.17-3.57.6-.986.437-1.763 1.21-1.763 2.4 0 .312.057.665.268 1.003.212.338.537.593.957.783.806.365 2.098.548 4.108.548 2.011 0 3.302-.183 4.108-.548.42-.19.745-.445.957-.783a1.85 1.85 0 00.269-1.003c0-1.19-.777-1.963-1.763-2.4-.968-.43-2.241-.6-3.57-.6zm-4 3c0-.476.268-.87.971-1.182.722-.32 1.781-.484 3.03-.484 1.247 0 2.307.164 3.029.484.702.312.97.706.97 1.182a.53.53 0 01-.065.295c-.038.061-.13.165-.376.276-.527.239-1.57.43-3.559.43s-3.031-.191-3.558-.43c-.247-.111-.338-.215-.377-.276a.53.53 0 01-.065-.295z"/></svg><svg viewBox="0 0 32 32" id="user-circle" xmlns="http://www.w3.org/2000/svg"><path d="M16 28c6.627 0 12-5.373 12-12S22.627 4 16 4 4 9.373 4 16s5.373 12 12 12z" stroke="currentColor" stroke-linecap="round" stroke-linejoin="round"/><path d="M16 20a5 5 0 100-10 5 5 0 000 10zM7.975 24.926a9 9 0 0116.05 0" stroke="currentColor" stroke-linecap="round" stroke-linejoin="round"/></svg><svg viewBox="0 0 48 48" id="warning" xmlns="http://www.w3.org/2000/svg"><path d="M44.381 35.25L27.9 6.75a4.5 4.5 0 00-7.8 0L3.619 35.25A4.481 4.481 0 007.5 42h33a4.48 4.48 0 003.881-6.75zM22.5 19.5a1.5 1.5 0 113 0V27a1.5 1.5 0 01-3 0v-7.5zM24 36a2.25 2.25 0 110-4.501A2.25 2.25 0 0124 36z"/></svg><svg viewBox="0 0 21 20" id="x" xmlns="http://www.w3.org/2000/svg"><path fill-rule="evenodd" clip-rule="evenodd" d="M9.326 9.873L3.633 2.832h4.51l3.514 4.352 3.754-4.332h2.484L12.857 8.67l5.973 7.396h-4.496l-3.805-4.706-4.063 4.693H3.97l5.357-6.18zm5.663 4.89L6.399 4.137h1.088l8.581 10.626H14.99z"/></svg></svg>