<svg width="24" height="24" viewBox="0 0 24 24" fill="none" xmlns="http://www.w3.org/2000/svg">
<path d="M12 2.25C12 2.25 21.375 8.25 21.375 13.125C21.3758 14.0531 21.1117 14.9621 20.6136 15.7452C20.1156 16.5284 19.4044 17.1531 18.5636 17.5459C17.7227 17.9388 16.7872 18.0834 15.867 17.9629C14.9468 17.8424 14.0801 17.4617 13.3688 16.8656L15 21.75H9L10.6313 16.8656C9.91993 17.4617 9.05323 17.8424 8.13301 17.9629C7.21278 18.0834 6.27728 17.9388 5.43645 17.5459C4.59562 17.1531 3.88439 16.5284 3.38637 15.7452C2.88834 14.9621 2.6242 14.0531 2.625 13.125C2.625 8.25 12 2.25 12 2.25Z" stroke="url(#paint0_linear_1_2363)" stroke-width="2" stroke-linecap="round" stroke-linejoin="round"/>
<defs>
<linearGradient id="paint0_linear_1_2363" x1="5.46065" y1="16.5741" x2="20.6888" y2="9.05497" gradientUnits="userSpaceOnUse">
<stop stop-color="#00FFD1"/>
<stop offset="1" stop-color="#8245F0"/>
</linearGradient>
</defs>
</svg>
