<svg width="24" height="24" viewBox="0 0 24 24" fill="none" xmlns="http://www.w3.org/2000/svg">
<path fill-rule="evenodd" clip-rule="evenodd" d="M10.1643 2.7372C10.8585 1.12528 13.1439 1.12528 13.8381 2.7372L15.4241 6.42011C15.5689 6.75629 15.8858 6.98651 16.2502 7.02031L20.243 7.39063C21.9905 7.55271 22.6968 9.72633 21.3783 10.8846L18.3657 13.5311C18.0907 13.7727 17.9697 14.1452 18.0502 14.5023L18.9318 18.414C19.3177 20.1261 17.4687 21.4695 15.9596 20.5734L12.5118 18.5262C12.197 18.3393 11.8054 18.3393 11.4906 18.5262L8.04276 20.5734C6.5337 21.4695 4.6847 20.1261 5.07058 18.414L5.95221 14.5023C6.03269 14.1452 5.91166 13.7727 5.63667 13.5311L2.62413 10.8846C1.3056 9.72633 2.01186 7.55271 3.7594 7.39063L7.75216 7.02031C8.11662 6.98651 8.43349 6.75629 8.57826 6.42011L10.1643 2.7372ZM13.5872 7.21117L12.0012 3.52826L10.4152 7.21117C9.98085 8.21969 9.03024 8.91036 7.93686 9.01176L3.9441 9.38208L6.95665 12.0286C7.7816 12.7533 8.1447 13.8708 7.90327 14.942L7.02164 18.8538L10.4695 16.8065C11.4137 16.2458 12.5887 16.2458 13.5329 16.8065L16.9808 18.8538L16.0991 14.942C15.8577 13.8708 16.2208 12.7533 17.0457 12.0286L20.0583 9.38208L16.0655 9.01176C14.9721 8.91036 14.0215 8.21969 13.5872 7.21117Z" fill="url(#paint0_linear_1_973)"/>
<defs>
<linearGradient id="paint0_linear_1_973" x1="4.98418" y1="15.7284" x2="20.7929" y2="7.27943" gradientUnits="userSpaceOnUse">
<stop stop-color="#00FFD1"/>
<stop offset="1" stop-color="#8245F0"/>
</linearGradient>
</defs>
</svg>
