<svg width="24" height="24" viewBox="0 0 24 24" fill="none" xmlns="http://www.w3.org/2000/svg">
<path d="M7.99968 9.00005C8.55197 9.00005 8.99968 8.55233 8.99968 8.00005C8.99968 7.44776 8.55197 7.00005 7.99968 7.00005C7.4474 7.00005 6.99968 7.44776 6.99968 8.00005C6.99968 8.55233 7.4474 9.00005 7.99968 9.00005Z" fill="url(#paint0_linear_1_1038)"/>
<path fill-rule="evenodd" clip-rule="evenodd" d="M12.1631 2.05869C11.6501 1.96204 11.1225 2.00292 10.4298 2.05659L7.49817 2.28214C6.80828 2.3352 6.23412 2.37936 5.76444 2.45225C5.27348 2.52844 4.82294 2.64563 4.39782 2.88289C3.762 3.23773 3.23737 3.76237 2.88252 4.39819C2.64527 4.82331 2.52807 5.27385 2.45188 5.76481C2.37899 6.23449 2.33483 6.80865 2.28178 7.49854L2.05623 10.4302C2.00256 11.1228 1.96168 11.6504 2.05832 12.1635C2.13999 12.597 2.29413 13.0137 2.51427 13.396C2.77478 13.8485 3.14918 14.2225 3.64071 14.7134L8.65431 19.727C9.16765 20.2403 9.59232 20.665 9.96553 20.9857C10.3532 21.3187 10.7454 21.5938 11.2109 21.7632C12.0784 22.079 13.0295 22.079 13.897 21.7632C14.3625 21.5938 14.7547 21.3187 15.1423 20.9857C15.5155 20.665 15.9402 20.2403 16.4535 19.727L19.7266 16.4539C20.24 15.9406 20.6647 15.5159 20.9853 15.1427C21.3184 14.7551 21.5934 14.3628 21.7629 13.8974C22.0786 13.0298 22.0786 12.0788 21.7629 11.2112C21.5934 10.7457 21.3184 10.3535 20.9853 9.96589C20.6646 9.59267 20.24 9.16799 19.7266 8.65462L14.7131 3.64108C14.2221 3.14954 13.8481 2.77515 13.3957 2.51464C13.0134 2.2945 12.5967 2.14036 12.1631 2.05869ZM10.4697 4.05948C11.3267 3.99355 11.5729 3.98268 11.7929 4.02412C12.0056 4.0642 12.2101 4.13983 12.3977 4.24785C12.5917 4.35957 12.7716 4.52807 13.3793 5.13583L18.2855 10.042C18.8325 10.589 19.2029 10.9603 19.4684 11.2693C19.727 11.5703 19.831 11.751 19.8835 11.8953C20.0384 12.321 20.0384 12.7876 19.8835 13.2133C19.831 13.3575 19.727 13.5383 19.4684 13.8393C19.2029 14.1482 18.8325 14.5196 18.2855 15.0665L15.0662 18.2859C14.5192 18.8329 14.1479 19.2033 13.8389 19.4687C13.5379 19.7273 13.3572 19.8313 13.2129 19.8838C12.7873 20.0388 12.3206 20.0388 11.8949 19.8838C11.7507 19.8313 11.5699 19.7273 11.2689 19.4687C10.96 19.2033 10.5886 18.8329 10.0417 18.2859L5.13546 13.3797C4.52771 12.772 4.3592 12.5921 4.24748 12.3981C4.13946 12.2105 4.06383 12.006 4.02376 11.7933C3.98231 11.5732 3.99319 11.327 4.05911 10.4701L4.27297 7.6899C4.3297 6.95237 4.3686 6.45571 4.42822 6.07151C4.48588 5.7 4.55304 5.50888 4.62896 5.37286C4.80307 5.06087 5.0605 4.80344 5.37249 4.62932C5.50851 4.55341 5.69964 4.48624 6.07115 4.42859C6.45534 4.36897 6.952 4.33007 7.68954 4.27333L10.4697 4.05948Z" fill="url(#paint1_linear_1_1038)"/>
<defs>
<linearGradient id="paint0_linear_1_1038" x1="5.02464" y1="16.6915" x2="21.012" y2="8.48174" gradientUnits="userSpaceOnUse">
<stop stop-color="#00FFD1"/>
<stop offset="1" stop-color="#8245F0"/>
</linearGradient>
<linearGradient id="paint1_linear_1_1038" x1="5.02464" y1="16.6915" x2="21.012" y2="8.48174" gradientUnits="userSpaceOnUse">
<stop stop-color="#00FFD1"/>
<stop offset="1" stop-color="#8245F0"/>
</linearGradient>
</defs>
</svg>
